<svg xmlns="http://www.w3.org/2000/svg" viewBox="0 0 495.15 457.57"><title>hair_dryer</title><g id="shapes"><path d="M248.07,109.27s-23.63.25-27.21,8.1-29.87,49.55,0,106.94c10.15,8.83,26.88,10.8,26.88,10.8s68.09,30.41,89,26.49c16.72-3,10.75,19.13,7.16,24S303.38,334.52,337.4,443c20.34,37.77,10.54,78.1,10.54,78.1s18.65,23.8,68.56,6.61,0-82,0-119.66-3.94-123.62,22.18-144.78,204-40.32,204-40.32l49.1-2.65s17.7-40.32,0-96.52l-50.71-2.64S511.48,105.29,464,90.75,351.38,64.92,248.07,109.27Z" transform="translate(-206.08 -77)" style="fill:#7f7f7f"/><path d="M248.1,109.42c-3,.09-5.88.32-8.8.68a63,63,0,0,0-8.62,1.64,20.88,20.88,0,0,0-7.81,3.62,6.63,6.63,0,0,0-1.37,1.58c-.34.56-.63,1.3-1,1.94l-2,4a112.8,112.8,0,0,0-6.51,16.3,102.83,102.83,0,0,0-2.36,52,116.64,116.64,0,0,0,4.83,16.82,150.39,150.39,0,0,0,7.14,16l-.21-.27a40.76,40.76,0,0,0,12.43,7,64.59,64.59,0,0,0,6.9,2.12,62.51,62.51,0,0,0,7.07,1.37l.15,0,.15.07c11,4.79,22.23,9.26,33.51,13.44A306.47,306.47,0,0,0,316,258.37c2.92.67,5.84,1.28,8.78,1.71a49.36,49.36,0,0,0,8.79.61q1.08,0,2.13-.18c.65-.1,1.48-.26,2.28-.34a12.67,12.67,0,0,1,5,.4,8,8,0,0,1,4.23,3.09,11.26,11.26,0,0,1,1.77,4.73,25.81,25.81,0,0,1-.63,9.46,35.08,35.08,0,0,1-1.37,4.48,18.28,18.28,0,0,1-2.24,4.31,79.21,79.21,0,0,0-9.11,15.28A124.69,124.69,0,0,0,326,336.26a172.17,172.17,0,0,0-1.49,17.88l-.09,4.49c0,1.49,0,3,0,4.49,0,3,.19,6,.33,9a255.13,255.13,0,0,0,4.75,35.66c2.37,11.78,5.39,23.43,8.92,34.93l-.08-.2a107,107,0,0,1,7.72,18.74c1,3.23,1.79,6.51,2.51,9.81s1.23,6.64,1.65,10a131,131,0,0,1,.84,20.19,113.51,113.51,0,0,1-2.4,20.08l-.14-.67a29.75,29.75,0,0,0,7.2,5.83,42.73,42.73,0,0,0,8.55,3.93A59.08,59.08,0,0,0,383,533.32a87,87,0,0,0,18.88-2.07c3.11-.66,6.19-1.48,9.24-2.37a85.65,85.65,0,0,0,9-3.13c5.77-2.48,11.06-6.42,14.2-11.89a27.91,27.91,0,0,0,3.25-8.78,42.45,42.45,0,0,0,.67-9.43,87.57,87.57,0,0,0-3.07-18.77c-1.62-6.16-3.63-12.22-5.71-18.26s-4.25-12-6.3-18.1a186.47,186.47,0,0,1-5.35-18.46,74.18,74.18,0,0,1-1.54-9.51c-.33-3.23-.2-6.44-.25-9.62l-.2-19.17c-.12-12.78-.09-25.57.4-38.36a334,334,0,0,1,3.41-38.25,156.36,156.36,0,0,1,4.07-18.83,71,71,0,0,1,7.58-17.82,33.68,33.68,0,0,1,6.34-7.52,24.65,24.65,0,0,1,2-1.53c.7-.43,1.38-.92,2.1-1.3s1.43-.81,2.16-1.17,1.45-.72,2.19-1.05a141.09,141.09,0,0,1,18.19-6.46c12.33-3.58,24.83-6.35,37.37-8.92s25.13-4.79,37.75-6.9c25.23-4.18,50.56-7.7,75.93-10.9l19-2.31,4.77-.55,2.38-.27,1.23-.14,1.2-.06,9.58-.53,38.3-2.12-1.34.93A85.76,85.76,0,0,0,694,208.25q1.47-5.9,2.38-11.9a150.83,150.83,0,0,0,1.7-24.21c-.06-4.06-.22-8.11-.6-12.15-.15-2-.42-4-.64-6s-.53-4-.88-6a173.54,173.54,0,0,0-5.64-23.66l1.41,1.09-28.27-1.49-14.13-.75-7.07-.37c-.61,0-1.14,0-1.82-.13l-1.75-.22-3.51-.45c-18.71-2.41-37.4-5-56-7.76s-37.28-5.78-55.85-9.12c-9.29-1.67-18.56-3.43-27.8-5.37s-18.45-4-27.57-6.6c-4.58-1.33-9-2.73-13.56-4s-9.07-2.46-13.64-3.54a263.08,263.08,0,0,0-27.7-5A254.92,254.92,0,0,0,356.74,80,328.48,328.48,0,0,0,301.38,90.6c-9.07,2.52-18,5.44-26.91,8.57S256.84,105.8,248.1,109.42Zm-.06-.3c34.48-15,70.91-26.6,108.55-30.63a257.14,257.14,0,0,1,56.63.15,264.73,264.73,0,0,1,28,4.82q6.92,1.58,13.76,3.46c4.55,1.26,9.09,2.66,13.58,3.94,9,2.49,18.23,4.52,27.44,6.42s18.48,3.59,27.76,5.21c18.55,3.23,37.17,6.11,55.81,8.81s37.32,5.26,56,7.63l3.5.44,1.76.22c.48.08,1.13.08,1.7.12l7,.36,14.11.73,28.21,1.45,1.07.06.33,1A177.58,177.58,0,0,1,699,147.42c.36,2,.61,4.09.91,6.13s.5,4.11.65,6.17c.4,4.11.56,8.25.63,12.38a153,153,0,0,1-1.71,24.74Q698.55,203,697,209A88.48,88.48,0,0,1,693.21,221l-.36.87-1,.06-38.25,2-9.56.5-1.2.06-1.15.12-2.37.27-4.76.53-19,2.26c-25.35,3.11-50.66,6.6-75.87,10.63-12.6,2-25.18,4.19-37.7,6.64s-25,5.17-37.24,8.64a138.44,138.44,0,0,0-17.95,6.24c-.72.32-1.43.65-2.13,1s-1.39.71-2.06,1.1-1.32.8-2,1.21a19.91,19.91,0,0,0-1.82,1.39,31.09,31.09,0,0,0-6,7,68.65,68.65,0,0,0-7.47,17.3,150,150,0,0,0-4.14,18.59,331.31,331.31,0,0,0-3.65,38c-.58,12.75-.7,25.52-.66,38.29l.13,19.17c.05,3.2-.09,6.39.22,9.53a74.92,74.92,0,0,0,1.51,9.39A181.94,181.94,0,0,0,424,440.2c2,6.05,4.19,12.06,6.26,18.11s4.05,12.14,5.68,18.34a87.46,87.46,0,0,1,3.16,19,42.83,42.83,0,0,1-.65,9.65,29.13,29.13,0,0,1-3.34,9.11c-3.25,5.71-8.75,9.81-14.64,12.37a87.09,87.09,0,0,1-9.1,3.21c-3.07.91-6.18,1.75-9.32,2.42a91,91,0,0,1-19.13,2.19,60.11,60.11,0,0,1-19.08-2.85,44.91,44.91,0,0,1-8.87-4,31.41,31.41,0,0,1-7.67-6.14l-.23-.26.09-.41a111.51,111.51,0,0,0,2.18-19.77,128.33,128.33,0,0,0-1-19.89c-.44-3.3-1-6.57-1.69-9.82s-1.55-6.45-2.55-9.61a103.88,103.88,0,0,0-7.71-18.29l-.05-.09,0-.11c-7.28-23-12.63-46.85-14.12-71.09-.15-3-.35-6.06-.35-9.1,0-1.52-.08-3-.05-4.55l.08-4.55a175.62,175.62,0,0,1,1.47-18.17,123.8,123.8,0,0,1,9.9-35.07,81.68,81.68,0,0,1,9.42-15.71,15,15,0,0,0,1.92-3.7,31.17,31.17,0,0,0,1.29-4.15,23.14,23.14,0,0,0,.61-8.49,8.55,8.55,0,0,0-1.33-3.68,5.44,5.44,0,0,0-2.93-2.15,10.14,10.14,0,0,0-4-.31c-.69.07-1.35.19-2.19.32s-1.58.16-2.37.2a52.45,52.45,0,0,1-9.24-.67c-3-.46-6-1.09-9-1.78a309.25,309.25,0,0,1-34.62-10.95q-17-6.31-33.56-13.7l.3.08a69.13,69.13,0,0,1-14.41-3.71,43.09,43.09,0,0,1-13-7.41l-.14-.12-.08-.15a150.34,150.34,0,0,1-7.1-16.26,117.57,117.57,0,0,1-4.77-17.08,106.66,106.66,0,0,1-2-17.62,103.66,103.66,0,0,1,1-17.7,105.83,105.83,0,0,1,4-17.25,115,115,0,0,1,6.75-16.35l2-3.93c.35-.65.6-1.29,1-2a7.61,7.61,0,0,1,1.53-1.72,21.29,21.29,0,0,1,8.11-3.64A79.71,79.71,0,0,1,248,109.12Z" transform="translate(-206.08 -77)" style="fill:#fff"/><path d="M248.09,109.53s-26.45,49.82.31,124.12c-23.73-5.22-27.09-9.42-27.09-9.42s-30.42-52.77,1-108.89C222.33,115.34,231.61,109.57,248.09,109.53Z" transform="translate(-206.08 -77)" style="fill:#494949"/><path d="M644.59,123.91s-13.74,48.23-.66,96.52l49.1-2.51s-11.57-55.1,0-91.69C676.73,125.8,644.59,123.91,644.59,123.91Z" transform="translate(-206.08 -77)" style="fill:#494949"/><path d="M693.31,125.56s16.52,43.13,0,93C681.36,170.56,693.31,125.56,693.31,125.56Z" transform="translate(-206.08 -77)" style="fill:#1e1e1e"/><path d="M631.26,133.26l-3.57,14.94S476.93,118.79,409.48,88.14C531.28,125.64,631.26,133.26,631.26,133.26Z" transform="translate(-206.08 -77)" style="fill:#fff;opacity:0.7000000000000001"/></g><g id="details"><path d="M382.58,77.82a51,51,0,0,0-6.34,8.27,84.75,84.75,0,0,0-5,9.18,113.19,113.19,0,0,0-7,19.65,159,159,0,0,0-3.86,20.51,207.45,207.45,0,0,0-1.33,20.84,266,266,0,0,0,3,41.62c.58,3.44,1.1,6.88,1.71,10.31s1.26,6.85,2,10.25,1.47,6.81,2.27,10.2l2.46,10.15-.09-.17a28.44,28.44,0,0,1,4.81,10,67.15,67.15,0,0,1,2.05,10.85,106.62,106.62,0,0,1,.66,11c0,3.67-.07,7.34-.36,11h-.1c.19-3.66.18-7.32.06-11s-.37-7.31-.83-10.94a67.12,67.12,0,0,0-2.18-10.71,27.62,27.62,0,0,0-4.78-9.63l-.07-.08,0-.09-2.59-10.15c-.79-3.4-1.5-6.82-2.26-10.23s-1.32-6.85-2-10.28-1.11-6.9-1.66-10.34a270.28,270.28,0,0,1-2.78-41.77,205.49,205.49,0,0,1,1.45-20.89,155.74,155.74,0,0,1,4-20.55A113.32,113.32,0,0,1,371,95.16,85.1,85.1,0,0,1,376.09,86a50.3,50.3,0,0,1,6.42-8.25Z" transform="translate(-206.08 -77)" style="fill:#fff"/><path d="M242.61,217.58a123.32,123.32,0,0,0,11.54,5.06c2,.72,3.93,1.48,5.91,2.16l6,2c2,.63,4,1.18,6,1.78l3,.87,3.06.76,6.11,1.51c2.05.47,4.11.86,6.17,1.29a299.47,299.47,0,0,0,49.94,6l6.29.19,3.15.1c1.05,0,2.1,0,3.15,0l12.59-.22c4.19-.17,8.37-.52,12.56-.77,2.09-.15,4.19-.25,6.28-.43l6.25-.72,12.51-1.46,12.5-1.71,25-3.35q50.07-6.24,100.23-11.82l50.16-5.51,50.2-5v.1Q591.11,213.62,541,219.41T440.8,231.54l-25,3.27-12.5,1.68-12.54,1.42-6.27.7c-2.09.18-4.2.28-6.29.42-4.2.24-8.4.57-12.6.73l-12.61.18c-1.06,0-2.11,0-3.16,0l-3.15-.11-6.31-.21a299.48,299.48,0,0,1-50-6.13c-2.06-.45-4.12-.86-6.17-1.34l-6.11-1.57-3.05-.79-3-.9c-2-.61-4-1.18-6-1.83l-6-2c-2-.7-3.94-1.48-5.91-2.22a124.75,124.75,0,0,1-11.51-5.16Z" transform="translate(-206.08 -77)" style="fill:#fff"/><path d="M644.59,121.47s-13.79,50.15-.66,101.61" transform="translate(-206.08 -77)" style="fill:none;stroke:#fff;stroke-miterlimit:10"/><path d="M693,123.91s-11.77,34.38,0,96.52" transform="translate(-206.08 -77)" style="fill:none;stroke:#fff;stroke-miterlimit:10"/><path d="M249,235.21a184.27,184.27,0,0,1-9.82-30.77c-1.24-5.26-2.1-10.6-2.84-15.95s-1.08-10.76-1.29-16.17,0-10.82.39-16.21A140.16,140.16,0,0,1,237.57,140a124.57,124.57,0,0,1,4.09-15.68c.87-2.55,1.82-5.08,2.87-7.57a62.41,62.41,0,0,1,3.56-7.25,95.12,95.12,0,0,0-5.49,15.11,140.55,140.55,0,0,0-3.49,15.67,168.43,168.43,0,0,0-2.09,32,195.22,195.22,0,0,0,3.66,31.85A251.35,251.35,0,0,0,249,235.21Z" transform="translate(-206.08 -77)" style="fill:#fff"/><path d="M428.93,467a59,59,0,0,1-11.1-4.52A65.92,65.92,0,0,1,407.68,456a59.3,59.3,0,0,1-4.55-4,45.61,45.61,0,0,1-4-4.54,37.42,37.42,0,0,1-3.27-5.1,29.06,29.06,0,0,1-2.15-5.62,46.22,46.22,0,0,0,3,5.11,50.78,50.78,0,0,0,3.62,4.62,66.76,66.76,0,0,0,8.6,7.95,107,107,0,0,0,9.69,6.71Q423.64,464.28,428.93,467Z" transform="translate(-206.08 -77)" style="fill:#fff"/><path d="M352.33,435.41c2.19-.2,4.38-.3,6.58-.38s4.38-.1,6.57-.12,4.39,0,6.58.12l3.29.14c1.1.08,2.19.13,3.29.24-1.1.12-2.19.16-3.29.25l-3.29.14c-2.19.09-4.38.1-6.58.11s-4.38,0-6.57-.11S354.52,435.62,352.33,435.41Z" transform="translate(-206.08 -77)" style="fill:#fff"/><path d="M354.43,448.09c2.2-.21,4.39-.3,6.58-.38s4.39-.11,6.58-.12,4.38,0,6.58.12l3.29.13c1.09.09,2.19.14,3.29.25-1.1.11-2.2.16-3.29.25l-3.29.13c-2.2.1-4.39.11-6.58.12s-4.39,0-6.58-.12S356.63,448.3,354.43,448.09Z" transform="translate(-206.08 -77)" style="fill:#fff"/><path d="M357.24,460.77c2.19-.21,4.39-.31,6.58-.39s4.38-.1,6.58-.11,4.38,0,6.57.11l3.29.14c1.1.09,2.2.13,3.29.25-1.09.11-2.19.16-3.29.24l-3.29.14c-2.19.09-4.38.11-6.57.12s-4.39,0-6.58-.12S359.43,461,357.24,460.77Z" transform="translate(-206.08 -77)" style="fill:#fff"/><path d="M358.64,473.44c2.2-.2,4.39-.3,6.58-.38s4.39-.1,6.58-.11,4.38,0,6.58.11l3.29.14c1.09.08,2.19.13,3.29.24-1.1.12-2.2.17-3.29.25l-3.29.14c-2.2.09-4.39.1-6.58.11s-4.39,0-6.58-.11S360.84,473.65,358.64,473.44Z" transform="translate(-206.08 -77)" style="fill:#fff"/><path d="M241.58,114.25c-1.72.7-3.46,1.32-5.21,1.93s-3.5,1.17-5.26,1.73-3.54,1.08-5.32,1.57-3.57,1-5.38,1.37c1.72-.7,3.46-1.32,5.21-1.92s3.5-1.18,5.26-1.74,3.54-1.08,5.32-1.56S239.77,114.66,241.58,114.25Z" transform="translate(-206.08 -77)" style="fill:#fff"/><path d="M238.72,122.21c-1.74.72-3.5,1.36-5.27,2s-3.55,1.23-5.33,1.81-3.58,1.13-5.39,1.64-3.61,1-5.45,1.45c1.74-.72,3.51-1.36,5.27-2s3.55-1.22,5.34-1.8,3.58-1.13,5.38-1.64S236.89,122.63,238.72,122.21Z" transform="translate(-206.08 -77)" style="fill:#fff"/><path d="M236.49,134.17c-1.81.57-3.65,1.07-5.49,1.55s-3.69.93-5.54,1.36-3.71.84-5.58,1.19-3.73.73-5.62,1c1.82-.58,3.66-1.07,5.5-1.56s3.68-.92,5.53-1.36,3.71-.83,5.58-1.19S234.61,134.44,236.49,134.17Z" transform="translate(-206.08 -77)" style="fill:#fff"/><path d="M234.72,146.14c-1.86.46-3.74.84-5.61,1.21s-3.76.7-5.65,1-3.77.61-5.67.85-3.79.49-5.7.65c1.86-.47,3.73-.85,5.61-1.22s3.76-.7,5.64-1,3.78-.6,5.67-.84S232.81,146.3,234.72,146.14Z" transform="translate(-206.08 -77)" style="fill:#fff"/><path d="M233.51,158c-1.88.34-3.75.6-5.64.84s-3.76.44-5.65.63-3.77.35-5.66.47-3.79.23-5.69.26c1.87-.34,3.75-.59,5.63-.84s3.77-.44,5.65-.63,3.78-.35,5.67-.46S231.6,158,233.51,158Z" transform="translate(-206.08 -77)" style="fill:#fff"/><path d="M233.54,171.39c-1.89.15-3.78.23-5.67.29s-3.78.07-5.67.08-3.77,0-5.66-.08-3.78-.14-5.67-.29c1.89-.16,3.78-.23,5.67-.29s3.77-.08,5.66-.09,3.78,0,5.67.09S231.65,171.23,233.54,171.39Z" transform="translate(-206.08 -77)" style="fill:#fff"/><path d="M233.54,186c-1.85.06-3.7,0-5.54,0s-3.69-.1-5.54-.18-3.68-.21-5.52-.36-3.68-.32-5.51-.57c1.85-.06,3.7,0,5.54,0s3.69.1,5.53.19,3.68.2,5.52.36S231.7,185.77,233.54,186Z" transform="translate(-206.08 -77)" style="fill:#fff"/><path d="M235.78,198.67c-1.88,0-3.75-.09-5.62-.19s-3.74-.25-5.61-.4-3.73-.34-5.59-.57-3.71-.45-5.57-.77c1.88,0,3.75.1,5.62.2s3.74.24,5.61.39,3.73.34,5.59.57S233.93,198.36,235.78,198.67Z" transform="translate(-206.08 -77)" style="fill:#fff"/><path d="M237.71,210c-1.87-.2-3.72-.47-5.57-.76s-3.7-.61-5.54-.95-3.68-.7-5.5-1.12-3.66-.82-5.47-1.32c1.87.2,3.72.47,5.57.76s3.7.61,5.54.95,3.67.71,5.5,1.12S235.9,209.45,237.71,210Z" transform="translate(-206.08 -77)" style="fill:#fff"/><path d="M239.86,219.79c-1.88-.42-3.73-.93-5.59-1.44s-3.69-1.07-5.53-1.63-3.66-1.16-5.48-1.79-3.63-1.27-5.41-2c1.88.42,3.73.93,5.59,1.44s3.69,1.06,5.53,1.63,3.66,1.16,5.47,1.79S238.07,219.07,239.86,219.79Z" transform="translate(-206.08 -77)" style="fill:#fff"/><path d="M242.62,228.92c-1.93-.55-3.82-1.19-5.71-1.84s-3.76-1.33-5.63-2-3.73-1.43-5.58-2.19-3.69-1.53-5.5-2.38c1.92.56,3.82,1.19,5.71,1.84s3.76,1.33,5.63,2,3.73,1.42,5.57,2.19S240.8,228.08,242.62,228.92Z" transform="translate(-206.08 -77)" style="fill:#fff"/><path d="M378.64,297.34a120,120,0,0,0-4.9,13.86c-1.41,4.68-2.54,9.45-3.5,14.23a154.58,154.58,0,0,0-3,29.08A144.85,144.85,0,0,0,370,383.58a155.1,155.1,0,0,0,8.61,28,122.12,122.12,0,0,1-10.14-27.7A130.64,130.64,0,0,1,366,369.3a138.19,138.19,0,0,1-.76-14.81,146.23,146.23,0,0,1,.92-14.79,135.63,135.63,0,0,1,2.53-14.59A116.87,116.87,0,0,1,378.64,297.34Z" transform="translate(-206.08 -77)" style="fill:#fff"/></g></svg>